<?xml version="1.0" standalone="no"?>
<!DOCTYPE svg PUBLIC "-//W3C//DTD SVG 20010904//EN"
 "http://www.w3.org/TR/2001/REC-SVG-20010904/DTD/svg10.dtd">
<svg version="1.0" xmlns="http://www.w3.org/2000/svg"
 width="91.000000pt" height="83.000000pt" viewBox="0 0 91.000000 83.000000"
 preserveAspectRatio="xMidYMid meet">
<metadata>
Created by potrace 1.10, written by Peter Selinger 2001-2011
</metadata>
<g transform="translate(0.000000,83.000000) scale(0.100000,-0.100000)"
fill="#000000" stroke="none">
<path d="M229 510 c-13 -44 -27 -80 -30 -80 -4 0 -16 11 -27 25 -11 14 -24 25
-29 25 -18 0 -55 -63 -60 -101 -5 -34 -2 -42 31 -75 33 -33 40 -36 78 -31 22
3 44 11 49 18 4 8 11 10 15 6 4 -3 1 -13 -6 -22 -11 -13 -4 -15 59 -15 61 0
71 3 71 18 1 16 1 16 14 0 11 -16 32 -17 193 -15 189 2 195 3 220 52 6 11 10
46 9 78 -3 79 -26 102 -103 103 -52 1 -58 3 -66 27 -14 42 -94 62 -128 31 -16
-14 -20 -14 -43 1 -18 12 -36 15 -57 11 -25 -5 -30 -3 -25 9 4 12 -7 15 -68
15 l-73 0 -24 -80z m87 -50 c-45 -129 -50 -137 -107 -145 -53 -7 -84 4 -94 35
-7 23 2 77 15 85 16 10 50 -19 50 -42 0 -41 20 -35 41 14 11 26 25 57 30 68
10 20 17 47 18 72 1 12 60 23 73 13 4 -3 -8 -48 -26 -100z m154 20 l6 -55 18
40 c25 56 45 75 77 75 45 0 51 -24 37 -143 l-12 -103 -40 2 c-58 2 -63 3 -50
12 6 4 19 33 28 65 9 32 21 55 26 52 5 -3 12 0 16 6 4 7 3 9 -4 5 -5 -3 -12 0
-15 6 -7 19 -32 -17 -59 -85 -16 -41 -30 -60 -45 -63 -38 -10 -44 3 -38 76 6
79 -10 104 -21 33 -4 -26 -13 -62 -20 -79 -11 -26 -19 -31 -48 -32 -32 -1 -36
1 -36 23 0 14 4 25 9 25 5 0 11 15 15 33 9 49 48 141 65 154 9 7 32 12 51 10
35 -2 35 -2 40 -57z m300 -32 c28 -30 11 -43 -35 -28 -20 7 -39 9 -42 6 -8 -8
-5 -10 42 -27 33 -12 40 -20 43 -45 3 -27 -2 -33 -32 -48 -26 -12 -46 -15 -73
-9 -21 4 -41 6 -45 5 -5 -1 -8 13 -8 32 0 30 2 33 25 28 14 -2 28 -8 31 -13 3
-5 14 -9 24 -9 10 0 21 -5 23 -10 3 -6 4 -5 3 2 -1 7 -23 23 -50 36 -41 20
-47 27 -44 50 6 51 99 71 138 30z"/>
</g>
</svg>
